<svg xmlns="http://www.w3.org/2000/svg" width="17" height="14" viewBox="0 0 17 14">
  <defs>
    <style>
      .cls-1 {
        fill: #9db1c2;
        fill-rule: evenodd;
      }
    </style>
  </defs>
  <path id="icon-auto.svg" class="cls-1" d="M141.218,3875H153.78a1.683,1.683,0,0,0,1.671-1.69v-2.83a2.56,2.56,0,0,0-.618-1.67,7.542,7.542,0,0,1-1.558-3.58,0.925,0.925,0,0,0-.918-0.81h-9.714a0.923,0.923,0,0,0-.918.81,7.542,7.542,0,0,1-1.558,3.58,2.56,2.56,0,0,0-.618,1.67v2.83A1.68,1.68,0,0,0,141.218,3875Zm-0.83-10.23a6.429,6.429,0,0,1-1.271,3.02,0.469,0.469,0,0,0,.039.66,0.458,0.458,0,0,0,.308.12,0.443,0.443,0,0,0,.347-0.16,7.309,7.309,0,0,0,1.491-3.47,1.207,1.207,0,0,1,1.187-1h10.022a1.21,1.21,0,0,1,1.187,1,7.329,7.329,0,0,0,1.491,3.47,0.443,0.443,0,0,0,.347.16,0.458,0.458,0,0,0,.308-0.12,0.469,0.469,0,0,0,.039-0.66,6.429,6.429,0,0,1-1.271-3.02,2.147,2.147,0,0,0-2.1-1.77h-4.245l0.278-.33a0.262,0.262,0,0,0,.087.01,0.84,0.84,0,1,0-.829-0.84,0.828,0.828,0,0,0,.072.34l-0.275.33a0.129,0.129,0,0,1-.2,0l-0.271-.32a0.869,0.869,0,0,0,.063-0.42,0.84,0.84,0,0,0-.765-0.75,0.836,0.836,0,1,0-.061,1.67h0.1l0.263,0.31h-4.245A2.147,2.147,0,0,0,140.388,3864.77Z" transform="translate(-139 -3861)"/>
</svg>
