<svg xmlns="http://www.w3.org/2000/svg" width="14" height="17" viewBox="0 0 14 17">
  <defs>
    <style>
      .cls-1 {
        fill: #9db1c2;
        fill-rule: evenodd;
      }
    </style>
  </defs>
  <path id="icon-reg.svg" class="cls-1" d="M149.351,3765.03a3.621,3.621,0,0,1,3.55-3.59c-0.536-.23-1.075-0.44-1.617-0.65a0.411,0.411,0,0,1-.251-0.19,5.659,5.659,0,0,1-.253-0.71,0.492,0.492,0,0,0-.262-0.37,0.21,0.21,0,0,1-.087-0.17,2.283,2.283,0,0,1,.3-1.63,0.245,0.245,0,0,0,.027-0.05,9.238,9.238,0,0,1,.584-1.51,0.056,0.056,0,0,0,.012-0.04c0.036-.34.074-0.69,0.1-1.04a0.16,0.16,0,0,0-.072-0.13,0.284,0.284,0,0,1-.165-0.34c0-.67,0-1.35,0-2.03a1.262,1.262,0,0,0-.421-1.01c-0.345-.31-0.7-0.6-1.05-0.9a0.232,0.232,0,0,1-.026-0.41,1.935,1.935,0,0,1,.243-0.18c-0.017-.02-0.036-0.05-0.053-0.07a1.7,1.7,0,0,0-.319,0c-0.39.06-.784,0.11-1.166,0.2a4.915,4.915,0,0,0-2.042.88,1.8,1.8,0,0,0-.773,1.27c-0.021.28-.018,0.57-0.02,0.85,0,0.47,0,.94-0.007,1.4a0.289,0.289,0,0,1-.1.22,0.246,0.246,0,0,0-.171.34c0.017,0.11,0,.22.028,0.32,0.066,0.3.136,0.59,0.221,0.87a5.386,5.386,0,0,1,.22.64,2.1,2.1,0,0,0,.528,1.13,0.348,0.348,0,0,1,.081.22c-0.023.33-.058,0.67-0.1,1a0.239,0.239,0,0,1-.135.17,0.441,0.441,0,0,0-.314.39c-0.07.23-.146,0.46-0.236,0.68a0.335,0.335,0,0,1-.166.17c-0.4.17-.807,0.33-1.209,0.5-0.43.17-.863,0.34-1.282,0.54s-0.849.43-1.272,0.66a3.14,3.14,0,0,0-.677.45v2.6h8.387A3.738,3.738,0,0,1,149.351,3765.03Zm5.65-.32h-1.662v-1.64h-0.665v1.64h-1.661v0.65h1.661V3767h0.665v-1.64H155v-0.65Z" transform="translate(-141 -3750)"/>
</svg>
