<svg xmlns="http://www.w3.org/2000/svg" width="16" height="16" viewBox="0 0 16 16">
  <defs>
    <style>
      .cls-1 {
        fill: #9db1c2;
        fill-rule: evenodd;
      }
    </style>
  </defs>
  <path id="icon-skype.svg" class="cls-1" d="M155.239,3126.05a7.671,7.671,0,0,0,.069-1.01,7.382,7.382,0,0,0-7.346-7.42,7.677,7.677,0,0,0-1.184.1,4.374,4.374,0,0,0-6.778,3.73,4.481,4.481,0,0,0,.706,2.42,7.491,7.491,0,0,0-.091,1.17,7.36,7.36,0,0,0,8.684,7.29,4.365,4.365,0,0,0,2.317.67A4.459,4.459,0,0,0,155.239,3126.05Zm-6.591,4.45c-2.334.13-3.427-.4-4.428-1.35-1.117-1.06-.668-2.28.242-2.34s1.457,1.05,1.942,1.36,2.331,1,3.307-.13c1.061-1.23-.707-1.87-2-2.06-1.85-.28-4.186-1.29-4-3.29a3.408,3.408,0,0,1,3.246-3.17,5.346,5.346,0,0,1,4.337,1.2c1.192,1.03.547,2.18-.213,2.27s-1.606-1.69-3.274-1.72c-1.72-.03-2.882,1.82-0.759,2.34s4.4,0.74,5.217,2.71S150.985,3130.38,148.648,3130.5Z" transform="translate(-140 -3117)"/>
</svg>
