<svg xmlns="http://www.w3.org/2000/svg" width="10" height="17" viewBox="0 0 10 17">
  <defs>
    <style>
      .cls-1 {
        fill: #9db1c2;
        fill-rule: evenodd;
      }
    </style>
  </defs>
  <path id="icon-phone.svg" class="cls-1" d="M151.71,3150h-7.419a1.259,1.259,0,0,0-1.284,1.24v14.52a1.259,1.259,0,0,0,1.284,1.24h7.419a1.258,1.258,0,0,0,1.283-1.24v-14.52A1.258,1.258,0,0,0,151.71,3150Zm-5.541.75h3.664a0.262,0.262,0,0,1,.166.3,0.269,0.269,0,0,1-.166.3h-3.664a0.269,0.269,0,0,1-.167-0.3A0.261,0.261,0,0,1,146.169,3150.75ZM148,3165.78a0.79,0.79,0,1,1,.817-0.79A0.809,0.809,0,0,1,148,3165.78Zm4.03-2.71h-8.062v-10.98h8.062v10.98Z" transform="translate(-143 -3150)"/>
</svg>
