<svg xmlns="http://www.w3.org/2000/svg" width="19.969" height="16" viewBox="0 0 19.969 16">
  <defs>
    <style>
      .cls-1 {
        fill: #9db1c2;
        fill-rule: evenodd;
      }
    </style>
  </defs>
  <path id="icon-numbers.svg" class="cls-1" d="M140.122,3906.32a1.6,1.6,0,0,1-.525.33v2.64a0.732,0.732,0,0,0,.747.71h1.682a0.729,0.729,0,0,0,.747-0.71v-5.38a0.842,0.842,0,0,0-.008-0.1Zm17.426-10.27H157.5l-3.4.15a0.442,0.442,0,0,0-.447.22,0.332,0.332,0,0,0,.135.43c0.349,0.33.694,0.66,1.047,0.99l-0.386.36-3.139,2.98-0.279.26-0.686.65-2.7,2.56-0.156-.15-3.23-3.06-0.686-.65-0.184-.17a0.773,0.773,0,0,0-1.059,0l-0.185.17-3.919,3.72a0.68,0.68,0,0,0,0,1l0.185,0.18a0.752,0.752,0,0,0,.529.2,0.8,0.8,0,0,0,.529-0.2l3.39-3.22,0.156,0.15,3.23,3.06,0.686,0.65,0.184,0.18a0.756,0.756,0,0,0,.53.2,0.8,0.8,0,0,0,.529-0.2l0.185-.18,3.23-3.06,0.685-.65,0.279-.26,3.14-2.98,0.381-.36,1.026,0.96a0.5,0.5,0,0,0,.325.19,0.41,0.41,0,0,0,.168-0.05,0.47,0.47,0,0,0,.258-0.46q0.075-1.575.156-3.15A0.385,0.385,0,0,0,157.548,3896.05Zm-11.75,4.53a3.625,3.625,0,0,0,1.018.28c0.275,0.04.283,0.05,0.287,0.32,0,0.13,0,.25,0,0.37a0.222,0.222,0,0,0,.246.25h0.575a0.214,0.214,0,0,0,.238-0.23c0-.17.008-0.34,0-0.51a0.265,0.265,0,0,1,.242-0.3,2.016,2.016,0,0,0,1-.61,1.663,1.663,0,0,0-.583-2.6,9.188,9.188,0,0,0-1.006-.43,2.22,2.22,0,0,1-.55-0.3,0.446,0.446,0,0,1,.119-0.81,0.971,0.971,0,0,1,.341-0.06,2.652,2.652,0,0,1,1.272.23c0.2,0.1.267,0.06,0.337-.13,0.07-.21.131-0.42,0.2-0.64a0.21,0.21,0,0,0-.152-0.29,3.235,3.235,0,0,0-.8-0.23c-0.366-.05-0.366-0.05-0.366-0.4,0-.49,0-0.49-0.517-0.49h-0.225c-0.243.01-.284,0.05-0.288,0.28,0,0.1,0,.2,0,0.31,0,0.3,0,.3-0.311.41a1.639,1.639,0,0,0-1.261,1.51,1.535,1.535,0,0,0,.924,1.48,9.784,9.784,0,0,0,1.157.49,2.025,2.025,0,0,1,.423.23,0.543,0.543,0,0,1-.14.97,1.555,1.555,0,0,1-.742.09,3.444,3.444,0,0,1-1.133-.32c-0.209-.11-0.271-0.08-0.341.14-0.061.18-.115,0.37-0.168,0.56C145.519,3900.4,145.544,3900.47,145.8,3900.58Zm0.452,6.39-0.686-.65-1.477-1.4a0.665,0.665,0,0,0-.1.36v4.01a0.732,0.732,0,0,0,.747.71h1.683a0.73,0.73,0,0,0,.747-0.71v-1.74a1.622,1.622,0,0,1-.727-0.41Zm2.77,0-0.185.17a1.7,1.7,0,0,1-.464.32v1.83a0.732,0.732,0,0,0,.747.71H150.8a0.73,0.73,0,0,0,.747-0.71v-4.01a0.678,0.678,0,0,0-.218-0.5Zm4.194-3.98-0.279.26-0.181.18v5.85a0.726,0.726,0,0,0,.747.71h1.683a0.73,0.73,0,0,0,.747-0.71v-8.76a0.7,0.7,0,0,0-.008-0.1Z" transform="translate(-138.031 -3894)"/>
</svg>
