<svg xmlns="http://www.w3.org/2000/svg" width="15" height="15" viewBox="0 0 15 15">
  <defs>
    <style>
      .cls-1 {
        fill: #9db1c2;
        fill-rule: evenodd;
      }
    </style>
  </defs>
  <path id="icon-instr2.svg" class="cls-1" d="M151.192,3789.41l0.444-.55a1.731,1.731,0,0,0-.276-2.45l-0.028-.03a1.767,1.767,0,0,0-2.474.28l-0.441.55Zm-2.7,4.64a0.531,0.531,0,0,0,.939.27l3.045-3.78a0.526,0.526,0,0,0-.093-0.75,0.537,0.537,0,0,0-.74.1l-0.3.37-0.508-.41h0l-2.774-2.21-7.1,8.81,2.776,2.21,6.436-7.99,0.509,0.41-2.081,2.58A0.52,0.52,0,0,0,148.5,3794.05Zm-5.211,5.02-2.615-2.08c-0.043.15-.064,0.27-0.064,0.27l-0.6,2.85a0.258,0.258,0,0,0,.359.29l2.669-1.21S143.151,3799.14,143.284,3799.07Zm11.336,0.51a0.163,0.163,0,0,0-.068.01l-4.033.51a0.241,0.241,0,0,1-.239-0.37c0.06-.09.12-0.19,0.179-0.28a0.4,0.4,0,0,0-.342-0.59,0.137,0.137,0,0,0-.061.01l-5.285.79-0.632.09-1.724.26a0.356,0.356,0,0,0-.31.39,0.373,0.373,0,0,0,.1.23,0.337,0.337,0,0,0,.263.12,0.135,0.135,0,0,0,.061-0.01l6.3-.94a0.248,0.248,0,0,1,.236.39c-0.041.05-.082,0.11-0.123,0.16a0.46,0.46,0,0,0,.044.55,0.372,0.372,0,0,0,.243.1h0.035l5.438-.69h0a0.327,0.327,0,0,0,.23-0.15,0.4,0.4,0,0,0,.054-0.31A0.369,0.369,0,0,0,154.62,3799.58Z" transform="translate(-140 -3786)"/>
</svg>
