<svg xmlns="http://www.w3.org/2000/svg" width="17" height="17" viewBox="0 0 17 17">
  <defs>
    <style>
      .cls-1 {
        fill: #9db1c2;
        fill-rule: evenodd;
      }
    </style>
  </defs>
  <path id="icon-facebook.svg" class="cls-1" d="M154.265,3258.99H140.733a1.741,1.741,0,0,0-1.74,1.74v13.54a1.741,1.741,0,0,0,1.74,1.74h13.532a1.741,1.741,0,0,0,1.741-1.74v-13.54A1.741,1.741,0,0,0,154.265,3258.99Zm-0.3,3.75s-2.518-.92-2.518.95v1.41h2.456l-0.218,2.34H151.45v7.95h-3.01v-7.95h-1.474v-2.34h1.474v-2.45s-0.031-1.9,2.442-2.44a7.191,7.191,0,0,1,3.423.17Z" transform="translate(-139 -3259)"/>
</svg>
