<svg xmlns="http://www.w3.org/2000/svg" width="17" height="17" viewBox="0 0 17 17">
  <defs>
    <style>
      .cls-1 {
        fill: #9db1c2;
        fill-rule: evenodd;
      }
    </style>
  </defs>
  <path id="icon-globe.svg" class="cls-1" d="M147.5,3676a8.5,8.5,0,1,0,8.5,8.5A8.5,8.5,0,0,0,147.5,3676Zm0,15.48a6.98,6.98,0,1,1,6.982-6.98A6.988,6.988,0,0,1,147.5,3691.48Zm-3.606-9.03h-1.749a5.685,5.685,0,0,0-.345,1.43h1.95A12.818,12.818,0,0,1,143.894,3682.45Zm-1.082-1.25h1.353a8.313,8.313,0,0,1,.555-1.47c0.057-.12.117-0.23,0.179-0.34A5.806,5.806,0,0,0,142.812,3681.2Zm8.294,5.35h1.749a5.685,5.685,0,0,0,.345-1.43h-1.95A12.818,12.818,0,0,1,151.106,3686.55Zm0.144-2.67h1.95a5.685,5.685,0,0,0-.345-1.43h-1.749A12.818,12.818,0,0,1,151.25,3683.88Zm-0.97,5.39c-0.057.12-.117,0.23-0.179,0.34a5.8,5.8,0,0,0,2.087-1.81h-1.352A8.392,8.392,0,0,1,150.28,3689.27Zm0.555-8.07h1.353a5.806,5.806,0,0,0-2.087-1.81c0.061,0.11.122,0.22,0.179,0.34A8.313,8.313,0,0,1,150.835,3681.2Zm-6.67,6.6h-1.353a5.806,5.806,0,0,0,2.087,1.81c-0.062-.11-0.122-0.22-0.179-0.34A8.313,8.313,0,0,1,144.165,3687.8Zm-0.415-2.68H141.8a5.685,5.685,0,0,0,.345,1.43h1.749A12.818,12.818,0,0,1,143.75,3685.12Zm4.374-6.15v2.23h1.411A4.231,4.231,0,0,0,148.124,3678.97Zm-2.659,2.23h1.411v-2.23A4.231,4.231,0,0,0,145.465,3681.2Zm-0.308,5.35h1.719v-1.43H145A11.451,11.451,0,0,0,145.157,3686.55ZM145,3683.88h1.877v-1.43h-1.719A11.451,11.451,0,0,0,145,3683.88Zm3.125-1.43v1.43H150a11.451,11.451,0,0,0-.158-1.43h-1.719Zm0,4.1h1.719a11.451,11.451,0,0,0,.158-1.43h-1.877v1.43h0Zm-1.248,3.48v-2.23h-1.411A4.231,4.231,0,0,0,146.876,3690.03Zm1.248,0a4.231,4.231,0,0,0,1.411-2.23h-1.411v2.23Z" transform="translate(-139 -3676)"/>
</svg>
