<svg xmlns="http://www.w3.org/2000/svg" width="15" height="15" viewBox="0 0 15 15">
  <defs>
    <style>
      .cls-1 {
        fill: #9db1c2;
        fill-rule: evenodd;
      }
    </style>
  </defs>
  <path id="icon-instr.svg" class="cls-1" d="M154.022,3823.91H152.93a1.686,1.686,0,0,0,.266-0.75,1.926,1.926,0,0,0-1.144-1.99,1.9,1.9,0,0,0-2.09.34l-1.379,1.25a1.444,1.444,0,0,0-1.083-.48,1.48,1.48,0,0,0-1.084.48l-1.381-1.25a1.9,1.9,0,0,0-2.09-.34,1.934,1.934,0,0,0-1.144,1.99,1.686,1.686,0,0,0,.266.75h-1.089a0.98,0.98,0,0,0-.978.98v1.47a0.49,0.49,0,0,0,.489.49h14.022a0.49,0.49,0,0,0,.489-0.49v-1.47A0.98,0.98,0,0,0,154.022,3823.91Zm-7.989-.16v0.16h-2.3a0.965,0.965,0,1,1,.648-1.68l1.654,1.51v0.01Zm6.192-.72a0.985,0.985,0,0,1-1,.88h-2.253v-0.18l1.629-1.48a0.984,0.984,0,0,1,.925-0.23A0.95,0.95,0,0,1,152.225,3823.03Zm-11.247,4.8v7.19a0.98,0.98,0,0,0,.979.98h4.565v-8.17h-5.544Zm7.5,0V3836h4.565a0.98,0.98,0,0,0,.979-0.98v-7.19h-5.544Z" transform="translate(-140 -3821)"/>
</svg>
