<svg xmlns="http://www.w3.org/2000/svg" width="21" height="21" viewBox="0 0 21 21">
  <metadata><?xpacket begin="﻿" id="W5M0MpCehiHzreSzNTczkc9d"?>
<x:xmpmeta xmlns:x="adobe:ns:meta/" x:xmptk="Adobe XMP Core 5.6-c138 79.159824, 2016/09/14-01:09:01        ">
   <rdf:RDF xmlns:rdf="http://www.w3.org/1999/02/22-rdf-syntax-ns#">
      <rdf:Description rdf:about=""/>
   </rdf:RDF>
</x:xmpmeta>
                                                                                                    
                                                                                                    
                                                                                                    
                                                                                                    
                                                                                                    
                                                                                                    
                                                                                                    
                                                                                                    
                                                                                                    
                                                                                                    
                                                                                                    
                                                                                                    
                                                                                                    
                                                                                                    
                                                                                                    
                                                                                                    
                                                                                                    
                                                                                                    
                                                                                                    
                                                                                                    
                           
<?xpacket end="w"?></metadata>
<defs>
    <style>
      .cls-1 {
        fill: #fff;
        fill-rule: evenodd;
      }
    </style>
  </defs>
  <path id="icon-exit-2.svg" class="cls-1" d="M1022.13,3027.12a0.881,0.881,0,0,0-.88.88v5.25h-10.5v-17.5h10.5V3021a0.875,0.875,0,0,0,1.75,0v-6.12a0.873,0.873,0,0,0-.87-0.88h-12.25a0.875,0.875,0,0,0-.88.88v19.24a0.875,0.875,0,0,0,.88.88h12.25a0.873,0.873,0,0,0,.87-0.88V3028A0.879,0.879,0,0,0,1022.13,3027.12Zm7.67-2.07,0.03-.03a0.053,0.053,0,0,1,.02-0.03,0.138,0.138,0,0,1,.03-0.04,0.076,0.076,0,0,1,.02-0.04,0.142,0.142,0,0,1,.02-0.04,0.227,0.227,0,0,0,.01-0.04c0.01-.01.01-0.02,0.02-0.03s0.01-.03.01-0.05a0.048,0.048,0,0,0,.01-0.04,0.048,0.048,0,0,0,.01-0.04,0.075,0.075,0,0,0,.01-0.05,0.037,0.037,0,0,1,.01-0.03v-0.18a0.037,0.037,0,0,1-.01-0.03,0.075,0.075,0,0,0-.01-0.05,0.048,0.048,0,0,0-.01-0.04,0.048,0.048,0,0,0-.01-0.04c0-.02-0.01-0.03-0.01-0.05s-0.01-.02-0.02-0.03a0.227,0.227,0,0,0-.01-0.04,0.142,0.142,0,0,1-.02-0.04,0.076,0.076,0,0,1-.02-0.04,0.138,0.138,0,0,1-.03-0.04,0.053,0.053,0,0,1-.02-0.03l-0.03-.03a0.435,0.435,0,0,0-.06-0.07h0l-3.5-3.5a0.873,0.873,0,0,0-1.23,1.24l2,2h-7.51a0.88,0.88,0,1,0,0,1.76h7.51l-2,2a0.873,0.873,0,0,0,1.23,1.24l3.5-3.5h0A0.435,0.435,0,0,0,1029.8,3025.05Z" transform="translate(-1009 -3014)"/>
</svg>
